<svg width="128" height="128" viewBox="0 0 128 128" fill="none" xmlns="http://www.w3.org/2000/svg">
<path fillRule="evenodd" clipRule="evenodd" d="M128 63.9997C128 28.6207 99.3573 0 64.0505 0C28.6447 0 0 28.6207 0 63.9997C0 99.2795 28.6447 128 64.0505 128C99.3573 128 128 99.2795 128 63.9997Z" fill="url(#paint0_linear_243_747)"/>
<path d="M30.3414 55.9508C25.7921 47.6966 24 40.9556 24 36.4158C24 31.8759 25.1029 30.6378 26.2057 29.5372C27.3086 28.4367 32.4092 25.4101 33.3742 24.7222C34.2014 24.172 37.5099 22.9338 39.5778 25.9604C41.6456 28.9869 45.5056 34.9025 48.2627 38.892C52.5363 44.5324 49.0898 47.0087 47.987 48.522C45.9192 51.2734 44.8163 51.9613 44.8163 55.263C44.8163 58.5646 54.1905 68.1946 56.3962 70.5333C58.6019 72.872 67.9762 80.9887 70.8711 81.539C73.7661 81.9517 77.764 78.9251 78.5911 78.0997C82.8646 74.798 85.2082 77.2743 87.1382 78.3748C89.0682 79.4754 97.891 84.9782 100.648 86.7666C103.267 88.5551 102.992 91.4441 102.992 91.4441C102.992 91.4441 101.2 96.8093 97.0638 100.799C96.0988 101.762 94.3067 103 90.0332 103C85.7596 103 81.0725 102.175 70.044 96.1215C61.0833 91.1689 52.5363 83.465 47.987 78.9251C43.4377 74.5229 35.5799 65.4432 30.3414 55.9508Z" fill="white"/>
<defs>
<linearGradient id="paint0_linear_243_747" x1="113.5" y1="25.5" x2="7.49999" y2="121" gradientUnits="userSpaceOnUse">
<stop stop-color="#4DEC68"/>
<stop offset="1" stop-color="#0CBC2A"/>
</linearGradient>
</defs>
</svg>
