<svg width="512" height="512" viewBox="0 0 512 512" fill="none" xmlns="http://www.w3.org/2000/svg">
<path fillRule="evenodd" clipRule="evenodd" d="M512 255.999C512 114.483 397.429 0 256.202 0C114.579 0 0 114.483 0 255.999C0 397.118 114.579 512 256.202 512C397.429 512 512 397.118 512 255.999Z" fill="#87DBEC"/>
<path d="M377.493 219.119H261.775C241.384 219.119 224.867 202.59 224.867 182.211V135.912C224.867 115.521 241.397 99.0039 261.775 99.0039H377.493C397.883 99.0039 414.401 115.533 414.401 135.912V182.199C414.401 202.589 397.871 219.119 377.493 219.119Z" fill="#CDF6F9"/>
<path d="M319.634 182.978C332.846 182.978 343.557 172.267 343.557 159.055C343.557 145.843 332.846 135.132 319.634 135.132C306.422 135.132 295.711 145.843 295.711 159.055C295.711 172.267 306.422 182.978 319.634 182.978Z" fill="white"/>
<path d="M167.373 277.939V396.215C167.373 405.472 159.821 413.025 150.564 413.025H122.061C108.662 413.025 97.6992 402.062 97.6992 388.663V285.613C97.6992 272.093 108.662 261.13 122.061 261.13H150.564C159.821 261.13 167.373 268.682 167.373 277.939Z" fill="#CDF6F9"/>
<path d="M406.119 344.325L374.692 374.534C365.313 383.426 353.863 389.76 341.317 392.561L283.458 405.838C272.495 408.396 261.045 408.274 250.083 405.473L167.375 384.644V297.551L193.564 279.767C209.521 268.926 229.253 265.028 248.256 268.926L299.415 279.645C311.961 282.325 320.975 293.409 320.975 306.199C320.975 313.751 317.93 320.451 313.057 325.445C308.185 330.317 301.364 333.362 293.934 333.362H312.936C318.173 333.362 323.411 331.901 327.796 328.977L371.16 300.718C382.123 293.531 396.74 295.237 405.753 304.738L406.971 306.199C417.203 316.918 416.838 333.971 406.119 344.325Z" fill="white"/>
<path d="M377.493 88.0288H261.775C235.379 88.0288 213.904 109.504 213.904 135.899V182.199C213.904 208.594 235.379 230.069 261.775 230.069H377.493C403.888 230.069 425.363 208.594 425.363 182.199V135.912C425.363 109.516 403.888 88.0288 377.493 88.0288ZM403.438 182.199C403.438 196.511 391.793 208.144 377.493 208.144H261.775C247.462 208.144 235.83 196.499 235.83 182.199V135.912C235.83 121.599 247.475 109.966 261.775 109.966H377.493C391.805 109.966 403.438 121.611 403.438 135.912V182.199Z" fill="#1A83A8"/>
<path d="M319.632 124.169C300.398 124.169 284.746 139.822 284.746 159.055C284.746 178.289 300.398 193.929 319.632 193.929C338.865 193.929 354.518 178.289 354.518 159.055C354.518 139.822 338.865 124.169 319.632 124.169ZM319.632 172.016C312.494 172.016 306.672 166.205 306.672 159.067C306.672 151.929 312.494 146.107 319.632 146.107C326.77 146.107 332.592 151.929 332.592 159.067C332.592 166.205 326.77 172.016 319.632 172.016Z" fill="#1A83A8"/>
<path d="M263.139 150.857C258.608 150.857 254.941 154.524 254.941 159.055C254.941 163.586 258.608 167.253 263.139 167.253C267.67 167.253 271.337 163.586 271.337 159.055C271.337 154.524 267.658 150.857 263.139 150.857Z" fill="#1A83A8"/>
<path d="M376.127 150.857C371.596 150.857 367.93 154.524 367.93 159.055C367.93 163.586 371.596 167.253 376.127 167.253C380.659 167.253 384.325 163.586 384.325 159.055C384.325 154.524 380.659 150.857 376.127 150.857Z" fill="#1A83A8"/>
<path d="M413.657 297.259C401.001 283.86 380.598 281.448 365.177 291.509L331.229 313.642C331.705 311.242 331.973 308.782 331.973 306.248C331.973 288.33 319.244 272.653 301.715 268.963L250.471 258.207C228.728 253.651 205.767 258.183 187.411 270.668L178.239 276.904C177.666 262.105 165.534 250.229 150.6 250.229H122.109C102.596 250.229 86.7363 266.1 86.7363 285.614V388.627C86.7363 408.14 102.608 424 122.109 424H150.6C165.095 424 176.886 412.794 178.117 398.615L247.426 416.119C254.003 417.776 260.776 418.616 267.548 418.616C273.724 418.616 279.9 417.922 285.905 416.545L343.715 403.28C358.21 399.955 371.536 392.756 382.243 382.463L413.669 352.279C428.7 337.845 429.273 313.788 414.973 298.647L413.657 297.259ZM156.435 396.24C156.435 399.456 153.816 402.074 150.6 402.074H122.109C114.691 402.074 108.662 396.033 108.662 388.627V285.614C108.662 278.196 114.703 272.154 122.109 272.154H150.6C153.816 272.154 156.435 274.773 156.435 277.989V396.24ZM398.468 336.444L367.029 366.641C359.184 374.193 349.428 379.467 338.806 381.903L280.996 395.168C271.738 397.287 261.982 397.166 252.785 394.863L178.36 376.056V303.349L199.75 288.805C213.197 279.657 230.031 276.295 245.964 279.67L297.208 290.425C304.651 291.984 310.047 298.635 310.047 306.248C310.047 315.164 302.799 322.424 293.883 322.424H258.547C252.493 322.424 247.584 327.333 247.584 333.387C247.584 339.441 252.493 344.35 258.547 344.35H312.958C320.364 344.35 327.563 342.218 333.763 338.174L377.163 309.878C383.717 305.602 392.365 306.638 397.725 312.314L399.016 313.678C405.094 320.11 404.85 330.317 398.468 336.444Z" fill="#1A83A8"/>
</svg>
