<svg width="512" height="512" viewBox="0 0 512 512" fill="none" xmlns="http://www.w3.org/2000/svg">
<path d="M256 496C388.548 496 496 388.548 496 256C496 123.452 388.548 16 256 16C123.452 16 16 123.452 16 256C16 388.548 123.452 496 256 496Z" fill="#FF7D00"/>
<path d="M236.44 304.76C236.147 302.946 236 301.2 236 299.52C236 297.84 236 296.08 236 294.24C235.782 285.39 237.403 276.591 240.76 268.4C243.69 261.487 247.745 255.108 252.76 249.52C257.563 244.303 262.929 239.635 268.76 235.6C274.413 231.626 279.747 227.626 284.76 223.6C289.233 220.012 293.262 215.903 296.76 211.36C299.991 206.993 301.666 201.67 301.52 196.24C301.605 192.496 300.749 188.791 299.03 185.464C297.311 182.137 294.783 179.296 291.68 177.2C285.093 172.453 274.893 170.08 261.08 170.08C254.502 170.005 247.958 171.032 241.72 173.12C236.067 175.054 230.604 177.504 225.4 180.44C220.766 183.042 216.34 185.998 212.16 189.28C208.293 192.346 204.893 194.893 201.96 196.92L180 168.48C185.509 162.528 191.729 157.275 198.52 152.84C205.403 148.329 212.752 144.574 220.44 141.64C228.15 138.693 236.118 136.47 244.24 135C252.159 133.558 260.191 132.821 268.24 132.8C292.933 132.8 312.133 137.96 325.84 148.28C332.415 153.006 337.728 159.275 341.313 166.536C344.898 173.796 346.645 181.826 346.4 189.92C346.725 199.761 344.924 209.557 341.12 218.64C337.955 225.834 333.509 232.394 328 238C322.593 243.233 316.684 247.922 310.36 252C304.293 255.956 298.506 260.326 293.04 265.08C287.734 269.661 283.197 275.063 279.6 281.08C275.713 288.262 273.834 296.36 274.16 304.52L236.44 304.76ZM229.64 353.04C229.466 349.541 230.043 346.046 231.334 342.789C232.624 339.532 234.597 336.59 237.12 334.16C242.535 329.358 249.611 326.861 256.84 327.2C264.285 326.788 271.599 329.283 277.24 334.16C279.761 336.591 281.733 339.534 283.023 342.79C284.313 346.047 284.892 349.541 284.72 353.04C284.87 356.548 284.281 360.048 282.993 363.314C281.704 366.58 279.744 369.539 277.24 372C271.648 376.976 264.314 379.536 256.84 379.12C253.246 379.288 249.655 378.745 246.271 377.524C242.887 376.302 239.777 374.425 237.12 372C234.623 369.536 232.67 366.575 231.389 363.309C230.107 360.043 229.525 356.545 229.68 353.04H229.64Z" fill="white"/>
</svg>
