<svg width="512" height="512" viewBox="0 0 512 512" fill="none" xmlns="http://www.w3.org/2000/svg">
<path fillRule="evenodd" clipRule="evenodd" d="M512 255.999C512 114.483 397.429 0 256.202 0C114.579 0 0 114.483 0 255.999C0 397.118 114.579 512 256.202 512C397.429 512 512 397.118 512 255.999Z" fill="#C3EDF5"/>
<path d="M389.543 122.4H339.443V222.598H389.543V122.4Z" fill="#C0392B"/>
<path d="M255.943 122.919L105.643 272.698V302.959V392.738V422.998H122.343H255.943H389.543H406.243V392.738V302.959V272.698L255.943 122.919Z" fill="#BDC3C7"/>
<path d="M255.943 132.419L105.643 281.05V312.78V314.45L255.943 164.15L406.243 314.45V312.78V281.05L255.943 132.419Z" fill="#95A5A6"/>
<path d="M255.944 89L67 277.709L90.6221 301.089L255.944 135.759L421.257 301.089L444.887 277.709L255.944 89Z" fill="#E74C3C"/>
<path d="M289.344 239.3C289.344 248.158 285.825 256.654 279.561 262.917C273.298 269.181 264.802 272.7 255.944 272.7C247.086 272.7 238.59 269.181 232.327 262.917C226.063 256.654 222.544 248.158 222.544 239.3C222.544 230.442 226.063 221.946 232.327 215.683C238.59 209.419 247.086 205.9 255.944 205.9C264.802 205.9 273.298 209.419 279.561 215.683C285.825 221.946 289.344 230.442 289.344 239.3Z" fill="#3498DB"/>
<path d="M289.344 322.8H222.544V423H289.344V322.8Z" fill="#E67E22"/>
<path d="M280.993 381.25C280.993 383.464 280.113 385.588 278.547 387.154C276.981 388.72 274.858 389.6 272.643 389.6C270.428 389.6 268.305 388.72 266.739 387.154C265.173 385.588 264.293 383.464 264.293 381.25C264.293 379.035 265.173 376.911 266.739 375.346C268.305 373.78 270.428 372.9 272.643 372.9C274.858 372.9 276.981 373.78 278.547 375.346C280.113 376.911 280.993 379.035 280.993 381.25Z" fill="#D35400"/>
<path d="M255.944 205.9C237.49 205.9 222.544 220.93 222.544 239.3C222.544 240.97 222.895 244.31 223.579 247.65C227.287 232.62 240.38 222.6 255.944 222.6C271.508 222.6 284.601 232.62 288.309 247.65C288.993 244.31 289.344 240.97 289.344 239.3C289.344 220.93 274.397 205.9 255.944 205.9Z" fill="#2980B9"/>
<path d="M280.993 372.9C280.993 375.115 280.113 377.239 278.547 378.805C276.981 380.371 274.858 381.25 272.643 381.25C270.428 381.25 268.305 380.371 266.739 378.805C265.173 377.239 264.293 375.115 264.293 372.9C264.293 370.686 265.173 368.562 266.739 366.996C268.305 365.43 270.428 364.55 272.643 364.55C274.858 364.55 276.981 365.43 278.547 366.996C280.113 368.562 280.993 370.686 280.993 372.9Z" fill="#F1C40F"/>
<path d="M289.344 306.1H222.544V322.8H289.344V306.1Z" fill="#D35400"/>
</svg>
