<svg width="512" height="512" viewBox="0 0 512 512" fill="none" xmlns="http://www.w3.org/2000/svg">
<g clip-path="url(#clip0_241_651)">
<path d="M249.31 -1H261.69C400.034 -1 512 110.966 512 249.31V261.69C512 400.034 400.034 512 261.69 512H249.31C110.966 512 -1 399.495 -1 261.152V248.771C-1 110.966 110.966 -1 249.31 -1Z" fill="#EEEEEE"/>
<path d="M381.379 116.28L448.443 224.165H337.642V223.436L315.045 117.009V116.28H381.379Z" fill="white"/>
<path d="M448.443 224.165L256 429L338.372 224.894H448.443V224.165Z" fill="#A4D7F7"/>
<path d="M255.271 116.28H315.774V117.009L338.371 223.436V224.165H174.357L196.226 116.28H255.271Z" fill="#69CDF4"/>
<path d="M338.371 224.165L256 428.271L174.357 224.165H338.371Z" fill="#0A84F2"/>
<path d="M160.507 327.676L63.5566 224.165H174.357L256 428.271L160.507 327.676Z" fill="#69CDF4"/>
<path d="M195.497 116.28L173.628 224.165H63.5566L130.62 116.28H195.497Z" fill="#4DBFF7"/>
<path d="M134.232 363.791L109.539 373.394C106.795 374.079 106.109 376.137 104.737 378.195L95.1345 403.574L85.5317 378.195C84.8458 375.451 82.7881 374.765 80.7303 373.394L55.3516 363.791L80.0444 354.188C82.7881 353.502 83.474 351.444 84.8458 349.387L94.4486 324.008L104.051 348.701C104.737 351.444 106.795 352.13 108.853 353.502L134.232 363.791Z" fill="#FBB040"/>
<path d="M439.512 101.07L419.335 108.543C417.093 108.543 416.346 110.785 415.599 112.279L407.379 132.456L399.906 112.279C399.906 110.037 397.664 109.29 396.169 108.543L375.992 100.322L396.169 92.8495C398.411 92.8495 399.158 90.6076 399.906 89.113L408.126 68.936L415.599 89.113C415.599 91.3549 417.841 92.1022 419.335 92.8495L439.512 101.07Z" fill="#ED8B00"/>
<path d="M158.024 412.344L144.2 417.464C142.664 417.464 142.152 419 141.64 420.024L136.008 433.848L130.888 420.024C130.888 418.488 129.352 417.976 128.328 417.464L114.504 411.832L128.328 406.712C129.864 406.712 130.376 405.176 130.888 404.152L136.52 390.328L141.64 404.152C141.64 405.688 143.176 406.2 144.2 406.712L158.024 412.344Z" fill="#ED8B00"/>
</g>
<defs>
<clipPath id="clip0_241_651">
<rect width="512" height="512" fill="white"/>
</clipPath>
</defs>
</svg>
