<svg width="512" height="512" viewBox="0 0 512 512" fill="none" xmlns="http://www.w3.org/2000/svg">
<g clip-path="url(#clip0_241_625)">
<path fillRule="evenodd" clipRule="evenodd" d="M512 255.997C512 114.886 397.429 0 256.202 0C114.579 0 0 114.886 0 255.997C0 397.525 114.579 512 256.202 512C397.429 512 512 397.525 512 255.997Z" fill="#FD8469"/>
<path d="M434.826 141.111H158.735V347.82H434.826V141.111Z" fill="#57585A" stroke="#7E5C62" stroke-width="0.2268" stroke-miterlimit="10"/>
<path fillRule="evenodd" clipRule="evenodd" d="M430.049 136.345H416.125H177.827H163.904H159.928H153.957V145.889V153.835V337.892C153.957 340.669 156.342 343.052 159.134 343.052C161.913 343.052 163.904 340.669 163.904 337.892V153.835V145.889H177.827H416.125H430.049V153.835V337.892C430.049 340.669 432.034 343.052 434.826 343.052C437.605 343.052 439.596 340.669 439.596 337.892V153.835V145.889V136.345H434.029H430.049Z" fill="#FEFEFE"/>
<path fillRule="evenodd" clipRule="evenodd" d="M449.941 357.762H144.016C141.627 357.762 139.243 355.379 139.243 352.602V343.053C139.243 340.276 141.628 337.893 144.016 337.893H449.942C452.327 337.893 454.711 340.276 454.711 343.053V352.602C454.71 355.379 452.326 357.762 449.941 357.762Z" fill="#7E5938"/>
<path fillRule="evenodd" clipRule="evenodd" d="M223.18 337.893V327.95C223.18 325.567 220.795 323.184 218.012 323.184H188.572C185.784 323.184 183.798 325.567 183.798 327.95V337.893" fill="white"/>
<path fillRule="evenodd" clipRule="evenodd" d="M99.46 285.015C83.145 281.843 95.875 331.526 108.21 324.375L114.181 343.455C119.744 360.941 134.066 376.844 145.208 389.562C149.583 394.329 176.239 395.125 181.014 390.361C193.74 377.638 208.859 363.325 214.825 345.838L221.19 326.758C233.131 334.705 248.246 285.417 231.532 287.8C233.526 249.645 207.268 211.476 167.487 210.284C127.301 209.491 99.062 246.453 99.46 285.015Z" fill="#FED198"/>
<path fillRule="evenodd" clipRule="evenodd" d="M202.095 353.793L126.109 352.207C136.857 397.123 125.714 416.992 125.714 416.992C125.714 416.992 141.627 434.084 162.313 434.487C182.605 435.275 199.311 418.98 199.311 418.98C199.311 418.98 188.97 398.314 202.095 353.793Z" fill="#F0B97D"/>
<path fillRule="evenodd" clipRule="evenodd" d="M126.108 390.361C97.8648 401.888 75.9808 411.832 59.6738 420.172C60.8648 421.758 62.4608 423.746 64.0528 425.332L64.4478 425.744C65.6398 426.935 66.8328 428.529 68.0248 429.721L69.2258 430.912C70.4178 432.103 71.6108 433.689 72.8028 434.881L73.5968 435.679L75.9808 437.658L78.3748 440.042L80.7598 442.441L81.1548 442.835C82.7468 444.429 83.9468 445.62 85.5338 446.813L86.7258 448.004C87.9188 448.793 89.1118 449.984 90.3028 451.176L91.4958 452.368C92.6958 453.164 93.8888 453.962 95.0808 454.751L96.6718 456.353L99.0618 458.341L101.845 460.33L104.23 461.916L105.822 463.107L109.403 465.884L110.995 467.075C112.186 467.872 113.38 468.67 114.58 469.458L116.566 470.666L119.744 472.646L122.138 474.241L124.124 475.432L127.701 477.412L129.695 478.602L132.478 480.197L135.657 481.783L138.051 482.974L140.83 484.56L144.017 486.163L145.609 486.96C147.2 487.758 148.392 488.151 149.979 488.949L151.575 489.737C152.767 490.14 154.358 490.928 155.551 491.332L157.537 492.12C158.737 492.918 160.329 493.311 161.521 494.109L163.108 494.504C164.3 494.906 165.892 495.695 167.092 496.098L168.68 496.493C169.871 497.29 171.463 497.685 173.058 498.079L174.65 498.481C175.842 499.27 177.433 499.672 179.021 500.085L180.612 500.462C182.208 501.275 183.799 501.67 185.386 502.065L186.578 502.467C188.572 502.862 190.163 503.256 191.755 503.658L192.15 504.054H192.548C194.14 504.448 196.134 504.85 197.721 505.245H198.519C200.106 505.639 202.096 506.041 203.692 506.436L204.884 506.831C206.869 507.233 208.461 507.627 210.447 508.022H211.25C212.841 508.424 214.826 508.818 216.816 508.818L217.619 509.214C221.591 509.616 225.571 510.011 229.547 510.405L229.946 510.807C231.931 510.807 233.925 510.807 235.912 511.202H236.71C238.695 511.202 240.69 511.597 242.281 511.597H243.473C245.459 511.597 247.05 511.597 249.044 511.999H250.236C252.222 511.999 254.208 511.999 256.203 511.999C272.115 511.999 288.028 510.405 303.142 507.627C307.521 486.961 318.261 461.118 315.875 458.34C306.324 449.59 282.854 430.508 201.297 392.741L126.108 390.361ZM186.577 502.468C188.571 502.863 190.162 503.257 191.754 503.659Z" fill="#333333"/>
<path fillRule="evenodd" clipRule="evenodd" d="M98.6581 257.587C98.6581 257.587 87.1251 241.687 104.229 226.583C104.229 226.583 107.416 201.533 133.271 215.843C133.271 215.843 144.414 186.824 204.483 208.695L194.931 210.285C241.086 236.922 243.073 238.113 231.136 289.781C229.146 300.127 224.371 310.859 221.588 325.173C214.43 350.607 211.646 364.518 200.104 370.088C182.206 378.831 147.592 378.831 129.694 370.886C115.373 364.518 115.373 345.839 108.21 324.376C101.446 303.298 91.4961 274.677 98.6581 257.587Z" fill="#1F120E"/>
<path fillRule="evenodd" clipRule="evenodd" d="M119.743 378.83L208.062 381.215L214.824 407.846L110.595 406.26L119.743 378.83Z" fill="#333333"/>
<path fillRule="evenodd" clipRule="evenodd" d="M320.646 325.566C324.232 326.757 328.204 324.779 328.998 321.186L338.948 289.78C340.14 286.206 338.155 282.237 334.569 281.046C330.991 279.854 327.011 281.843 325.819 285.812L315.876 317.219C315.082 320.792 317.068 324.779 320.646 325.566Z" fill="#FED198"/>
<path fillRule="evenodd" clipRule="evenodd" d="M332.582 333.908C336.159 335.099 340.14 333.109 340.937 329.543L350.879 298.137C352.08 294.168 350.085 290.577 346.508 289.386C342.524 288.195 338.946 290.183 337.754 293.766L327.803 325.172C326.611 329.141 328.997 332.717 332.582 333.908Z" fill="#FED198"/>
<path fillRule="evenodd" clipRule="evenodd" d="M343.717 343.852C347.303 345.043 351.279 342.659 352.475 339.084L362.418 307.686C363.61 304.095 361.225 300.126 357.644 298.935C354.067 298.137 350.086 300.126 349.289 303.701L339.347 335.1C338.154 338.691 340.14 342.658 343.717 343.852Z" fill="#FED198"/>
<path fillRule="evenodd" clipRule="evenodd" d="M302.348 352.207L290.807 277.061L304.733 274.677L316.67 349.809L302.348 352.207Z" fill="#FEFEFE"/>
<path fillRule="evenodd" clipRule="evenodd" d="M305.926 325.969C309.905 326.758 313.484 324.78 314.684 321.187L324.626 289.781C325.818 286.207 323.832 282.238 319.853 281.047C316.275 279.855 312.689 282.238 311.498 285.813L301.556 317.22C300.362 320.792 302.348 324.779 305.926 325.969Z" fill="#FED198"/>
<path fillRule="evenodd" clipRule="evenodd" d="M303.142 345.436C306.325 344.245 308.319 340.67 307.126 337.088L296.776 308.08C295.584 304.489 292.006 302.903 288.425 304.095C285.242 305.286 283.248 308.877 284.441 312.452L294.79 341.467C295.983 344.646 299.561 346.629 303.142 345.436Z" fill="#FED198"/>
<path fillRule="evenodd" clipRule="evenodd" d="M314.28 360.941C330.197 366.101 346.903 356.972 351.681 341.466L352.08 340.275C357.244 324.779 348.095 307.685 332.581 302.903C316.669 298.136 299.962 306.872 295.185 322.789L294.789 323.587C290.014 339.479 298.763 356.176 314.28 360.941Z" fill="#FED198"/>
<path fillRule="evenodd" clipRule="evenodd" d="M291.604 346.629L243.472 456.353C238.295 475.434 249.837 495.303 268.927 500.086C288.426 505.246 307.92 493.716 312.689 474.242L342.13 359.75L291.604 346.629Z" fill="#333333"/>
<path d="M266.543 225.786H258.985V222.211C257.393 224.993 254.606 226.583 251.427 226.583C249.042 226.583 247.048 225.786 245.457 224.595C244.265 223.009 243.471 221.419 243.471 219.036C243.471 213.859 246.25 211.078 252.221 210.285L258.985 209.492C258.985 206.711 257.393 205.519 254.606 205.519C251.427 205.519 248.644 206.312 245.856 208.301V202.327C247.048 201.535 248.644 201.136 250.629 200.741C252.221 200.343 254.206 199.944 255.407 199.944C262.965 199.944 266.542 203.535 266.542 211.078V225.786H266.543ZM258.985 215.843V213.859L254.606 214.651C251.823 215.05 250.629 216.241 250.629 217.831C250.629 219.035 251.028 219.828 251.427 220.227C252.221 220.626 253.015 221.02 254.206 221.02C255.407 221.02 256.6 220.625 257.792 219.434C258.586 218.637 258.985 217.433 258.985 215.843ZM303.939 213.859H294.392V223.403H289.614V213.859H280.07V209.093H289.614V199.548H294.392V209.093H303.939V213.859ZM321.045 223.009V225.786H313.088V188.825H321.045V204.725C323.039 201.533 325.818 199.943 328.997 199.943C332.582 199.943 334.968 201.134 336.562 203.534C338.552 205.518 339.345 208.695 339.345 212.667C339.345 216.641 338.154 220.227 336.158 222.61C334.172 225.392 331.388 226.583 328.202 226.583C325.024 226.583 322.64 225.392 321.045 223.009ZM320.646 212.269V215.05C320.646 216.64 321.045 217.831 322.241 219.035C323.04 220.226 324.232 220.625 325.819 220.625C327.411 220.625 328.998 219.828 329.798 218.636C330.99 217.033 331.39 215.049 331.39 212.666C331.39 210.682 330.991 209.092 330.198 207.9C328.998 206.709 327.804 205.916 326.219 205.916C324.627 205.916 323.435 206.709 322.241 207.9C321.438 209.093 320.646 210.683 320.646 212.269ZM377.935 208.694H354.067V203.533H377.935V208.694ZM377.935 219.434H354.067V214.257H377.935V219.434ZM406.18 224.993C404.194 226.185 401.8 226.583 398.622 226.583C394.642 226.583 391.463 225.392 389.078 223.009C386.685 220.626 385.492 217.832 385.492 213.859C385.492 209.491 386.685 206.311 389.472 203.928C391.857 201.533 395.435 199.943 399.814 199.943C402.597 199.943 404.986 200.341 406.179 201.134V207.901C404.591 206.71 402.597 205.917 400.607 205.917C398.622 205.917 396.635 206.71 395.435 207.901C394.242 209.491 393.449 211.077 393.449 213.46C393.449 215.843 394.242 217.433 395.435 218.637C396.635 219.828 398.222 220.626 400.607 220.626C402.199 220.626 404.193 219.829 406.179 218.637V224.993H406.18Z" fill="#FEFEFE"/>
<path d="M269.722 200.341H274.899V202.724H266.544V200.341L270.129 197.165C270.923 196.368 271.321 195.974 271.717 195.575C272.115 194.782 272.115 194.384 272.115 193.985C272.115 192.794 271.717 192.399 270.129 192.399C269.327 192.399 268.135 192.794 267.337 193.59V191.207C268.53 190.41 269.723 190.016 270.923 190.016C272.115 190.016 273.308 190.411 273.706 191.207C274.5 191.602 274.899 192.398 274.899 193.59C274.899 195.176 274.101 196.367 272.513 197.958L269.722 200.341Z" fill="#FEFEFE"/>
<path d="M343.717 200.341H348.895V202.724H340.539V200.341L344.117 197.165C344.918 196.368 345.317 195.974 345.712 195.575C346.11 194.782 346.11 194.384 346.11 193.985C346.11 192.794 345.317 192.399 344.117 192.399C343.323 192.399 342.131 192.794 341.334 193.59V191.207C342.525 190.41 343.718 190.016 344.918 190.016C346.11 190.016 346.904 190.411 347.702 191.207C348.496 191.602 348.895 192.398 348.895 193.59C348.895 195.176 348.096 196.367 346.11 197.958L343.717 200.341Z" fill="#FEFEFE"/>
<path d="M412.149 200.341H416.919V202.724H408.963V200.341L412.548 197.165C413.342 196.368 413.741 195.974 414.135 195.575C414.135 194.782 414.534 194.384 414.534 193.985C414.534 192.794 413.741 192.399 412.548 192.399C411.751 192.399 410.555 192.794 409.756 193.59V191.207C410.555 190.41 411.751 190.016 413.342 190.016C414.534 190.016 415.327 190.411 416.125 191.207C416.919 191.602 417.317 192.398 417.317 193.59C417.317 195.176 416.52 196.367 414.534 197.958L412.149 200.341Z" fill="#FEFEFE"/>
</g>
<defs>
<clipPath id="clip0_241_625">
<rect width="512" height="512" fill="white"/>
</clipPath>
</defs>
</svg>
